<svg width="42" height="42" viewBox="0 0 42 42" fill="none" xmlns="http://www.w3.org/2000/svg">
<path d="M29.8375 35.49C28.1225 37.1525 26.25 36.89 24.4475 36.1025C22.54 35.2975 20.79 35.2625 18.7775 36.1025C16.2575 37.1875 14.9275 36.8725 13.4225 35.49C4.88254 26.6875 6.14254 13.2825 15.8375 12.7925C18.2 12.915 19.845 14.0875 21.2275 14.1925C23.2925 13.7725 25.27 12.565 27.475 12.7225C30.1175 12.9325 32.1125 13.9825 33.425 15.8725C27.965 19.145 29.26 26.3375 34.265 28.35C33.2675 30.975 31.9725 33.5825 29.82 35.5075L29.8375 35.49ZM21.0525 12.6875C20.79 8.785 23.9575 5.565 27.5975 5.25C28.105 9.765 23.5025 13.125 21.0525 12.6875Z" fill="#0F933D"/>
</svg>
