<svg width="65" height="65" viewBox="0 0 65 65" fill="none" xmlns="http://www.w3.org/2000/svg">
<path d="M44.474 46.4585H58.5188C57.3394 30.8949 50.6387 21.228 42.0439 15.5101L45.9571 6.96889C46.0754 6.69786 46.1246 6.40172 46.1003 6.10701C46.0759 5.81229 45.9788 5.52823 45.8177 5.28029C45.6565 5.03235 45.4363 4.82828 45.1769 4.68639C44.9174 4.54449 44.6268 4.46921 44.3311 4.46729H19.8333C19.5375 4.46921 19.2469 4.54449 18.9875 4.68639C18.728 4.82828 18.5079 5.03235 18.3467 5.28029C18.1855 5.52823 18.0884 5.81229 18.0641 6.10701C18.0397 6.40172 18.0889 6.69786 18.2072 6.96889L20.3514 11.6147H38.4345L36.8263 15.1884H33.5206C34.5291 17.9035 35.2712 20.7101 35.7363 23.5688C36.0346 25.3425 36.2256 27.1327 36.3081 28.9294L33.4849 30.9128C33.4929 28.6016 33.3016 26.2939 32.9131 24.0155C32.42 20.983 31.5682 18.0199 30.3757 15.1884H28.5889C26.9385 17.2711 25.4567 19.4818 24.1575 21.7998C23.1094 23.7877 22.2191 25.8549 21.495 27.9824L19.047 26.3563C19.7631 24.3005 20.6415 22.3049 21.6737 20.3882C22.7189 18.592 23.8643 16.856 25.1045 15.1884H21.9775L22.1204 15.4922C12.6501 21.7998 5.44903 32.8784 5.44903 51.3724C5.42488 51.7611 5.47801 52.1508 5.60534 52.5189C5.73266 52.887 5.93167 53.2262 6.19086 53.517C6.45004 53.8078 6.76427 54.0443 7.11539 54.2129C7.46651 54.3815 7.84756 54.4789 8.23653 54.4994H22.5314C21.9176 53.8605 21.4938 53.0634 21.3075 52.1973C21.1211 51.3312 21.1796 50.4303 21.4764 49.5956C21.7732 48.7608 22.2966 48.0252 22.9879 47.4711C23.6792 46.9171 24.5111 46.5664 25.3904 46.4585C24.9625 45.7327 24.7343 44.9066 24.7292 44.0641C24.7292 42.7846 25.2375 41.5574 26.1423 40.6526C27.0471 39.7479 28.2742 39.2396 29.5538 39.2396H40.2749C41.5545 39.2396 42.7816 39.7479 43.6864 40.6526C44.5912 41.5574 45.0994 42.7846 45.0994 44.0641C45.1086 44.9038 44.8927 45.7306 44.474 46.4585Z" fill="#D3DBB7"/>
<path d="M38.5957 50.9255C38.5957 50.4516 38.4074 49.9971 38.0723 49.662C37.7372 49.3269 37.2827 49.1387 36.8088 49.1387H26.0876C25.6137 49.1387 25.1592 49.3269 24.8241 49.662C24.489 49.9971 24.3008 50.4516 24.3008 50.9255C24.3008 51.3994 24.489 51.8539 24.8241 52.189C25.1592 52.5241 25.6137 52.7124 26.0876 52.7124H36.8088C37.2827 52.7124 37.7372 52.5241 38.0723 52.189C38.4074 51.8539 38.5957 51.3994 38.5957 50.9255Z" fill="#D3DBB7"/>
<path d="M40.2756 41.9912H29.5544C29.0805 41.9912 28.626 42.1795 28.2909 42.5146C27.9558 42.8497 27.7676 43.3042 27.7676 43.7781C27.7676 44.252 27.9558 44.7065 28.2909 45.0416C28.626 45.3767 29.0805 45.5649 29.5544 45.5649H40.2756C40.7495 45.5649 41.204 45.3767 41.5391 45.0416C41.8742 44.7065 42.0625 44.252 42.0625 43.7781C42.0625 43.3042 41.8742 42.8497 41.5391 42.5146C41.204 42.1795 40.7495 41.9912 40.2756 41.9912Z" fill="#D3DBB7"/>
<path d="M39.3108 56.2861H28.5896C28.1157 56.2861 27.6612 56.4744 27.3261 56.8095C26.991 57.1446 26.8027 57.5991 26.8027 58.073C26.8027 58.5469 26.991 59.0014 27.3261 59.3365C27.6612 59.6716 28.1157 59.8599 28.5896 59.8599H39.3108C39.7847 59.8599 40.2392 59.6716 40.5743 59.3365C40.9094 59.0014 41.0976 58.5469 41.0976 58.073C41.0976 57.5991 40.9094 57.1446 40.5743 56.8095C40.2392 56.4744 39.7847 56.2861 39.3108 56.2861Z" fill="#D3DBB7"/>
<path d="M58.4296 56.2861H45.9216C45.4477 56.2861 44.9932 56.4744 44.6581 56.8095C44.323 57.1446 44.1348 57.5991 44.1348 58.073C44.1348 58.5469 44.323 59.0014 44.6581 59.3365C44.9932 59.6716 45.4477 59.8599 45.9216 59.8599H58.4296C58.9035 59.8599 59.358 59.6716 59.6931 59.3365C60.0282 59.0014 60.2165 58.5469 60.2165 58.073C60.2165 57.5991 60.0282 57.1446 59.6931 56.8095C59.358 56.4744 58.9035 56.2861 58.4296 56.2861Z" fill="#D3DBB7"/>
<path d="M60.2168 49.1387H47.7087C47.2348 49.1387 46.7803 49.3269 46.4452 49.662C46.1101 49.9971 45.9219 50.4516 45.9219 50.9255C45.9219 51.3994 46.1101 51.8539 46.4452 52.189C46.7803 52.5241 47.2348 52.7124 47.7087 52.7124H60.2168C60.6907 52.7124 61.1452 52.5241 61.4803 52.189C61.8154 51.8539 62.0036 51.3994 62.0036 50.9255C62.0036 50.4516 61.8154 49.9971 61.4803 49.662C61.1452 49.3269 60.6907 49.1387 60.2168 49.1387Z" fill="#D3DBB7"/>
</svg>
