<svg width="55" height="55" viewBox="0 0 55 55" fill="none" xmlns="http://www.w3.org/2000/svg">
<path d="M0.142009 31.0439C1.75332 43.9165 12.3731 54.0188 25.5546 54.9569V43.5783C18.0521 42.6923 12.1045 36.8996 11.1948 29.5923H0C0.0351508 30.0798 0.0815499 30.5646 0.142009 31.0439Z" fill="#D3DBB7"/>
<path d="M29.4023 47.9696V54.9568C43.6857 53.933 54.957 42.0186 54.957 27.4711C54.957 22.2172 53.486 17.3051 50.9353 13.1274L41.1855 18.6596C42.8668 21.1935 43.8441 24.2207 43.8441 27.4711C43.8441 35.7286 37.541 42.5381 29.4023 43.5081V47.9696Z" fill="#D3DBB7"/>
<path d="M40.1761 14.7828L48.6217 9.9833C43.5787 3.88477 35.9589 0 27.4349 0C12.9049 0 1.00636 11.2865 0 25.5871H11.1442C12.1295 17.5917 19.0467 11.3994 27.4349 11.3994C31.7361 11.3994 35.6495 13.0277 38.5762 15.6934L40.1761 14.7842" fill="#00B331"/>
<path d="M40.1761 14.7842L48.6217 9.98467C43.5787 3.88477 35.9589 0 27.4349 0C12.9049 0 1.00636 11.2865 0 25.5871H11.1442C12.1295 17.5917 19.0467 11.3994 27.4349 11.3994C31.7361 11.3994 35.6495 13.0277 38.5762 15.6933L40.1761 14.7842Z" fill="#D3DBB7"/>
</svg>
