<svg width="72" height="72" viewBox="0 0 72 72" fill="none" xmlns="http://www.w3.org/2000/svg">
<path d="M39.6 7.95C38.5614 7.17107 37.2982 6.75 36 6.75C34.7018 6.75 33.4386 7.17107 32.4 7.95L11.4 23.7C10.6548 24.2589 10.05 24.9836 9.63344 25.8167C9.21687 26.6499 9 27.5685 9 28.5V57C9 58.5913 9.63214 60.1174 10.7574 61.2426C11.8826 62.3679 13.4087 63 15 63H26.7C27.5752 63 28.4146 62.6523 29.0335 62.0335C29.6523 61.4146 30 60.5752 30 59.7V45C30 43.4087 30.6321 41.8826 31.7574 40.7574C32.8826 39.6321 34.4087 39 36 39C37.5913 39 39.1174 39.6321 40.2426 40.7574C41.3679 41.8826 42 43.4087 42 45V59.7C42 60.5752 42.3477 61.4146 42.9665 62.0335C43.5854 62.6523 44.4248 63 45.3 63H57C58.5913 63 60.1174 62.3679 61.2426 61.2426C62.3679 60.1174 63 58.5913 63 57V28.5C63 27.5685 62.7831 26.6499 62.3666 25.8167C61.95 24.9836 61.3452 24.2589 60.6 23.7L39.6 7.95Z" fill="#4FDC00"/>
</svg>
