<svg width="65" height="65" viewBox="0 0 65 65" fill="none" xmlns="http://www.w3.org/2000/svg">
<path d="M51.6145 39.9707C49.2045 41.4356 46.4366 42.2061 43.6163 42.197C41.2536 42.1783 38.9176 41.6951 36.7414 40.7748C35.0642 43.1426 34.1665 45.9743 34.1733 48.8759V56.2861C34.174 56.5617 34.1179 56.8344 34.0086 57.0874C33.8994 57.3404 33.7393 57.5683 33.5383 57.7568C33.3373 57.9453 33.0997 58.0905 32.8402 58.1833C32.5807 58.2761 32.3049 58.3146 32.03 58.2963C31.5133 58.2514 31.0327 58.0127 30.6845 57.6282C30.3364 57.2438 30.1465 56.7419 30.1529 56.2233V53.0974L20.4486 43.3931C19.006 43.9313 17.4803 44.2128 15.9407 44.2248C13.821 44.2303 11.7411 43.6503 9.93013 42.5488C4.4548 39.2219 1.50731 31.5655 2.07771 22.0596C2.10643 21.5679 2.31474 21.1037 2.66307 20.7554C3.01141 20.4071 3.47553 20.1988 3.96732 20.17C13.4731 19.6097 21.1296 22.5471 24.4464 28.0225C25.7496 30.1686 26.3185 32.6807 26.0671 35.1788C26.0515 35.3724 25.9802 35.5573 25.8617 35.7111C25.7432 35.865 25.5827 35.9812 25.3996 36.0458C25.2165 36.1104 25.0186 36.1206 24.8298 36.0751C24.641 36.0296 24.4694 35.9304 24.3358 35.7894L19.5113 30.7388C19.1313 30.3777 18.6252 30.1794 18.101 30.1861C17.5768 30.1928 17.076 30.404 16.7053 30.7747C16.3346 31.1454 16.1234 31.6462 16.1167 32.1704C16.11 32.6946 16.3083 33.2007 16.6694 33.5807L30.2082 47.4638C30.2233 47.2678 30.2409 47.0718 30.261 46.8783C30.7006 43.1512 32.3452 39.6696 34.9448 36.9629L47.6569 23.5296C48.0341 23.1528 48.2461 22.6415 48.2464 22.1083C48.2466 21.5751 48.035 21.0636 47.6581 20.6864C47.2813 20.3092 46.77 20.0972 46.2368 20.0969C45.7036 20.0967 45.1921 20.3083 44.8149 20.6852L32.5024 33.7063C32.3791 33.8369 32.2231 33.932 32.0507 33.9819C31.8782 34.0318 31.6955 34.0345 31.5216 33.9899C31.3478 33.9453 31.189 33.8549 31.0618 33.7281C30.9347 33.6014 30.8438 33.4429 30.7987 33.2691C29.6076 28.8768 30.1328 24.5046 32.4069 20.7505C36.8947 13.3428 47.3378 9.37769 60.3439 10.1416C60.8356 10.1703 61.2998 10.3786 61.6481 10.7269C61.9964 11.0753 62.2048 11.5394 62.2335 12.0312C62.9873 25.0398 59.0221 35.4829 51.6145 39.9707Z" fill="#D3DBB7"/>
</svg>
