<svg width="28" height="28" viewBox="0 0 28 28" fill="none" xmlns="http://www.w3.org/2000/svg">
<path d="M27.4711 11.2C27.6204 11.2 27.7495 11.3042 27.7744 11.4504C27.9207 12.2687 28 13.1491 28 14C28.0043 17.4453 26.7338 20.7703 24.4331 23.3349C24.3797 23.3941 24.3053 23.4301 24.2257 23.4354C24.1461 23.4406 24.0676 23.4146 24.0069 23.3629L20.2035 20.1429C20.1708 20.1147 20.1441 20.0802 20.125 20.0414C20.1059 20.0026 20.0949 19.9603 20.0925 19.9172C20.0902 19.874 20.0966 19.8308 20.1114 19.7902C20.1262 19.7496 20.1491 19.7124 20.1787 19.6809C20.9445 18.8472 21.534 17.8672 21.9115 16.8H14.3111C14.2286 16.8 14.1495 16.7672 14.0911 16.7089C14.0328 16.6505 14 16.5714 14 16.4889V11.5111C14 11.34 14.14 11.2 14.3111 11.2H27.4711ZM17.8469 21.4667C17.9029 21.4385 17.9658 21.427 18.0281 21.4337C18.0905 21.4403 18.1496 21.4647 18.1984 21.504L22.1931 24.8842C22.2287 24.9139 22.2571 24.9513 22.2761 24.9936C22.2951 25.0359 22.3042 25.082 22.3027 25.1283C22.3012 25.1747 22.2892 25.2201 22.2675 25.2611C22.2458 25.3021 22.215 25.3376 22.1775 25.3649C19.7972 27.0824 16.9353 28.0046 14 28C11.6669 28.0002 9.37066 27.4173 7.32012 26.3043C5.26958 25.1912 3.52971 23.5834 2.25867 21.6269C2.21706 21.5622 2.20132 21.4841 2.21457 21.4083C2.22783 21.3326 2.26911 21.2645 2.33023 21.2178L6.28911 18.1658C6.32551 18.1386 6.36726 18.1194 6.41161 18.1095C6.45595 18.0995 6.5019 18.0991 6.54642 18.1082C6.59094 18.1173 6.63303 18.1358 6.66991 18.1623C6.7068 18.1889 6.73766 18.2229 6.76045 18.2622C7.84934 20.1114 9.60469 21.4737 11.6663 22.0696C13.7279 22.6655 15.9393 22.4497 17.8469 21.4667ZM5.72445 15.4404C5.73529 15.4975 5.72996 15.5564 5.70907 15.6105C5.68818 15.6647 5.65255 15.7119 5.60622 15.7469L1.35178 19.0244C1.31424 19.0539 1.2703 19.0741 1.2235 19.0835C1.17671 19.0929 1.12836 19.0912 1.08236 19.0785C1.03635 19.0657 0.993978 19.0424 0.958639 19.0103C0.9233 18.9783 0.895985 18.9383 0.878893 18.8938C0.296288 17.328 -0.00136842 15.6706 4.72931e-06 14C4.72931e-06 12.208 0.33756 10.4938 0.952004 8.918C0.969258 8.87456 0.996266 8.83568 1.03094 8.80435C1.06562 8.77301 1.10703 8.75007 1.15198 8.73729C1.19694 8.72451 1.24423 8.72224 1.2902 8.73064C1.33617 8.73905 1.37959 8.75791 1.41712 8.78577L5.66689 11.9031C5.768 11.9762 5.81467 12.1053 5.78822 12.2267C5.55977 13.2837 5.53914 14.375 5.72445 15.4404ZM6.45089 9.58377C6.60022 9.69266 6.81022 9.64911 6.90978 9.49355C7.66837 8.30025 8.71593 7.31775 9.95536 6.63713C11.1948 5.9565 12.586 5.59977 14 5.6C15.9554 5.59935 17.8491 6.2847 19.3511 7.53666C19.4117 7.58803 19.4894 7.61491 19.5688 7.61203C19.6482 7.60916 19.7237 7.57673 19.7804 7.52111L23.3053 3.99467C23.3349 3.9653 23.3581 3.93022 23.3736 3.89157C23.3891 3.85292 23.3966 3.81152 23.3956 3.76988C23.3946 3.72824 23.3851 3.68725 23.3677 3.64941C23.3503 3.61157 23.3254 3.57767 23.2944 3.54978C20.7393 1.26211 17.4296 -0.00193226 14 3.14755e-06C11.6972 -0.0015417 9.42967 0.565603 7.39876 1.65107C5.36785 2.73654 3.63641 4.30674 2.35823 6.22222C2.31525 6.28802 2.2992 6.36781 2.31338 6.44511C2.32757 6.52241 2.37091 6.5913 2.43445 6.63755L6.45089 9.58377Z" fill="#0F933D"/>
</svg>
