<svg width="22" height="25" viewBox="0 0 22 25" fill="none" xmlns="http://www.w3.org/2000/svg">
<path fill-rule="evenodd" clip-rule="evenodd" d="M3.28286 10.743L12.3212 1.44679C13.051 0.696136 14.2566 0.696136 14.9864 1.44679C15.6878 2.16817 15.6878 3.31667 14.9864 4.03805L8.52678 10.682C7.77207 11.4582 7.77207 12.6941 8.52678 13.4704L14.9864 20.1143C15.6878 20.8357 15.6878 21.9842 14.9864 22.7056C14.2566 23.4562 13.051 23.4562 12.3212 22.7056L3.28286 13.4093C2.93917 13.0557 2.74609 12.5762 2.74609 12.0762C2.74609 11.5762 2.93917 11.0967 3.28286 10.743Z" fill="#F1F3CC"/>
<path fill-rule="evenodd" clip-rule="evenodd" d="M3.28286 10.743L12.3212 1.44679C13.051 0.696136 14.2566 0.696136 14.9864 1.44679C15.6878 2.16817 15.6878 3.31667 14.9864 4.03805L8.52678 10.682C7.77207 11.4582 7.77207 12.6941 8.52678 13.4704L14.9864 20.1143C15.6878 20.8357 15.6878 21.9842 14.9864 22.7056C14.2566 23.4562 13.051 23.4562 12.3212 22.7056L3.28286 13.4093C2.93917 13.0557 2.74609 12.5762 2.74609 12.0762C2.74609 11.5762 2.93917 11.0967 3.28286 10.743Z" fill="#F1F3CC"/>
</svg>
