<svg width="227" height="227" viewBox="0 0 227 227" fill="none" xmlns="http://www.w3.org/2000/svg">
<path d="M214.152 113.5C214.152 87.9741 204.647 64.6634 188.972 46.9129V121.616C191.859 119.909 195.076 118.838 198.467 118.589C203.968 118.186 209.291 119.999 213.683 123.265C213.993 120.052 214.152 116.794 214.152 113.5ZM115.123 81.7294C112.921 74.0793 106.5 70.2843 102.394 70.6481L102.393 70.6476C98.8241 70.9678 94.2995 74.3539 92.6651 78.9719C92.4604 79.555 92.3215 80.1187 92.2296 80.6501C92.0795 107.984 91.9419 133.959 91.9619 158.519C94.8001 157.394 97.9182 156.889 101.132 157.16H101.134C112.047 158.083 120.453 167.647 120.03 178.75L107.192 178.261C107.357 173.919 104.025 170.299 100.051 169.963C96.5749 169.671 93.1864 171.954 92.0038 175.367C92.0175 178.641 92.0349 181.888 92.0562 185.109C92.1553 185.439 92.2503 185.77 92.3395 186.104L92.0638 186.177C92.1242 194.961 92.2136 203.543 92.341 211.922C99.1644 213.382 106.244 214.152 113.503 214.152C119.742 214.152 125.848 213.583 131.773 212.496V140.078C131.396 139.428 130.833 138.552 130.109 137.699C128.597 135.915 127.328 135.304 126.444 135.279H126.442C125.731 135.259 125.101 135.548 124.472 135.901C122.443 137.046 120.816 139.853 119.871 144.07C118.989 148.012 119.049 151.677 119.067 152.298L106.224 152.659C106.195 151.628 106.109 146.732 107.334 141.263C108.496 136.07 111.229 128.615 118.17 124.705L118.173 124.703C119.197 124.127 122.418 122.311 126.806 122.435C128.621 122.486 130.277 122.849 131.773 123.408V103.467C131.632 100.12 130.826 97.338 129.735 95.3165C128.404 92.8502 126.918 91.9289 126 91.6945L125.994 91.693C125.437 91.5502 124.79 91.5674 124.093 91.7237C123.407 91.8777 122.886 92.1177 122.649 92.2309L122.637 92.2369C119.918 93.5304 117.116 97.6699 117.607 104.28L104.794 105.231C104.103 95.919 107.552 86.4811 115.123 81.7294ZM162.409 142.593C160.035 141.422 157.628 141.76 156.675 141.928C152.104 142.741 146.997 147.426 144.621 155.747V209.246C148.631 207.943 152.531 206.394 156.303 204.618L147.681 204.301C148.072 193.711 155.581 184.417 165.372 183.217H165.373C169.142 182.756 172.841 183.567 176.104 185.233C176.107 184.95 176.114 184.669 176.124 184.389V153.439H167.927C167.927 153.535 167.911 151.306 167.082 148.712C166.246 146.1 164.853 143.901 162.639 142.711L162.409 142.593ZM73.7118 180.536C72.9819 180.44 70.6865 180.862 68.1406 183.746C65.7752 186.426 63.7539 190.734 63.6345 196.479L56.3075 196.326C63.4094 201.24 71.1737 205.264 79.4388 208.237C79.3444 201.38 79.2739 194.387 79.223 187.262C78.5041 185.4 77.5857 183.825 76.6108 182.653C75.233 180.998 74.1508 180.596 73.7118 180.536ZM170.22 196.652C169.015 196.054 167.847 195.858 166.935 195.969L166.935 195.97C164.841 196.227 161.902 198.455 160.88 202.319C164.102 200.596 167.219 198.703 170.22 196.652ZM71.3753 104.667C67.9147 103.695 64.6868 105.455 63.8321 105.956L63.8256 105.96L63.819 105.964C60.4662 107.919 57.7958 112.168 57.2542 117.831C58.2409 118.156 58.9559 118.479 59.3039 118.631C69.3558 123.035 74.0285 134.497 73.7567 145.88L60.9124 145.573C61.1154 137.072 57.6006 131.912 54.149 130.4L54.1475 130.399C53.6979 130.202 53.2149 130.002 52.6559 129.875C52.0924 129.748 51.6796 129.752 51.3992 129.816L51.3962 129.817C50.6776 129.979 48.8181 131.007 47.0378 134.961C45.539 138.29 44.4764 142.969 44.351 148.641V186.626C46.4996 188.659 48.7373 190.598 51.0584 192.437C51.9193 185.432 54.7191 179.536 58.5084 175.243C62.71 170.483 68.8119 167.053 75.1177 167.765L75.4181 167.802L75.4217 167.802C76.7333 167.978 77.9717 168.328 79.1333 168.809C79.0864 151.862 79.1266 134.221 79.2039 115.918C78.5384 109.613 74.8932 105.657 71.3753 104.667ZM195.17 172.329C194.467 172.823 193.727 173.469 192.986 174.305C191.976 175.442 191.064 176.842 190.362 178.479C192.042 176.494 193.645 174.442 195.17 172.329ZM13.6407 126.188C15.766 143.075 22.0782 158.661 31.5032 171.874V151.061C31.4864 150.207 31.4869 149.361 31.5032 148.524V143.543C30.8032 141.804 29.3134 138.474 26.9613 135.148C23.9278 130.859 20.0703 127.427 15.4181 126.466C14.9105 126.362 14.3127 126.247 13.6407 126.188ZM210.721 139.642C208.435 134.112 203.44 131.212 199.593 131.392L199.407 131.403C195.262 131.707 190.086 135.87 188.972 142.824V161.044C192.415 158.918 196.356 157.725 200.348 158.114L200.653 158.146L200.657 158.147C201.609 158.26 202.534 158.461 203.43 158.739C206.477 152.696 208.933 146.306 210.721 139.642ZM170.94 45.6113C169.837 45.6044 167.639 46.3756 165.496 49.191C164.126 50.9914 162.961 53.4399 162.376 56.439C170.823 60.7425 175.113 71.105 175.465 81.3891L162.624 81.8287C162.314 72.7759 158.357 68.344 155.612 67.5111L155.579 67.501C155.563 67.496 155.175 67.3722 154.579 67.3185C153.969 67.2636 153.288 67.2958 152.637 67.498L152.636 67.4985C151.159 67.9577 149.212 69.4419 147.51 72.8612C145.838 76.2201 144.703 80.9175 144.621 86.4967V103.247C144.649 104.094 144.65 104.951 144.621 105.816V133.506C147.51 131.409 150.795 129.925 154.427 129.279L154.433 129.277C156 129.001 162.067 127.965 168.406 131.228L168.708 131.387L168.712 131.389C172.024 133.166 174.408 135.599 176.124 138.132V110.827L175.966 110.792C176.061 110.361 176.104 109.867 175.988 109.378C175.695 108.166 174.12 106.593 171.997 106.288C171.353 106.198 170.183 106.112 169.151 106.776C168.409 107.254 167.904 108.028 167.583 109.082C167.253 110.163 167.279 111.046 167.275 110.862L154.43 111.172C154.416 110.558 154.424 108.185 155.293 105.335C156.17 102.457 158.081 98.6229 162.195 95.9733L162.197 95.9728C167.013 92.8721 171.896 93.3154 173.523 93.5294L173.804 93.5682L173.81 93.5687L173.816 93.5697C174.582 93.6794 175.355 93.8449 176.124 94.0643V49.0352C175.712 48.546 175.198 47.9925 174.604 47.4634C173.111 46.1355 171.855 45.6165 170.943 45.6113H170.94ZM24.1999 67.0206C16.9785 80.8666 12.8812 96.5991 12.8488 113.3C15.2128 113.31 17.0471 113.683 18.0122 113.882L18.0157 113.883C23.5154 115.019 27.9758 117.761 31.5032 120.951V81.9426C30.8112 75.4435 27.8409 70.3007 24.1999 67.0206ZM79.6742 18.674C72.7755 21.1352 66.2238 24.3278 60.1124 28.1592C61.7375 28.5124 63.4703 29.0849 65.2284 29.9826L65.5243 30.1368L65.5274 30.1384C71.6283 33.3799 74.6035 38.7644 76.0382 42.8912C77.4711 47.013 77.6003 50.5042 77.613 51.099L64.7677 51.3722C64.7631 51.2692 64.6809 49.3484 63.9027 47.11C63.0829 44.7521 61.7244 42.667 59.4994 41.4847C57.0359 40.179 54.5285 40.4948 53.6162 40.6721L53.6152 40.6726C49.9556 41.383 46.0846 44.7916 44.351 50.5435V118.453C44.7848 108.787 49.1203 99.6694 57.3334 94.8724L57.6151 94.708C59.3533 93.7064 66.1935 90.0548 74.4342 92.186L74.8541 92.2994L74.8566 92.2999C76.4323 92.7434 77.9186 93.3591 79.3082 94.1227C79.327 90.5532 79.3464 86.9602 79.3662 83.344L79.2392 83.3485C79.2028 82.3211 79.2266 81.098 79.3858 79.7351C79.494 60.0492 79.6074 39.6842 79.6742 18.674ZM121.41 13.1546C127.06 19.0389 129.938 27.9715 129.675 36.9649L116.832 36.5889C117.109 27.1275 112.678 21.1451 108.577 19.6913C105.852 18.7272 103.044 19.4589 101.981 19.782L101.974 19.7841L101.968 19.7861C98.7182 20.7662 96.3894 22.9873 94.7329 25.4124C93.5118 27.2001 92.8027 28.8926 92.4816 29.7658C92.4404 40.2598 92.3907 50.5797 92.337 60.7228C95.104 59.1503 98.1371 58.1285 101.256 57.8505L101.259 57.85C112.989 56.8104 124.186 66.01 127.648 78.9341C128.152 79.0112 128.665 79.1139 129.185 79.2471C130.086 79.4777 130.949 79.7836 131.773 80.1525V14.5036C128.375 13.8804 124.918 13.4273 121.41 13.1546ZM144.621 57.1608C145.834 56.404 147.143 55.7788 148.548 55.3168L148.824 55.2286C149.077 55.1498 149.33 55.0796 149.58 55.0144C150.44 49.7288 152.476 45.0846 155.272 41.4106C159.06 36.4324 164.714 32.7253 171.017 32.7632C172.062 32.7692 173.061 32.8798 174.011 33.0692C165.221 26.4437 155.314 21.2271 144.621 17.753V57.1608ZM31.5032 55.1152C31.3144 55.3799 31.127 55.6456 30.9406 55.9122C31.1294 56.0579 31.3171 56.2057 31.5032 56.3563V55.1152ZM227 113.5C227 176.174 176.175 227 113.503 227C50.8309 227 2.12946e-05 176.174 0 113.5C0 92.9145 5.48841 73.5907 15.0834 56.929L15.0839 56.9285C34.6732 22.9226 71.4066 6.00537e-05 113.497 0C141.381 0 166.933 10.067 186.693 26.7583C211.33 47.5678 227 78.7132 227 113.5Z" fill="#4FDC00"/>
</svg>
