<svg width="428" height="926" viewBox="0 0 428 926" fill="none" xmlns="http://www.w3.org/2000/svg">
<rect width="428" height="926" fill="#00491E"/>
<path d="M317.152 346.5C317.152 320.974 307.647 297.663 291.972 279.913V354.616C294.859 352.909 298.076 351.838 301.467 351.589C306.968 351.186 312.291 352.999 316.683 356.265C316.993 353.052 317.152 349.794 317.152 346.5ZM218.123 314.729C215.921 307.079 209.5 303.284 205.394 303.648L205.393 303.648C201.824 303.968 197.299 307.354 195.665 311.972C195.46 312.555 195.321 313.119 195.23 313.65C195.08 340.984 194.942 366.959 194.962 391.519C197.8 390.394 200.918 389.889 204.132 390.16H204.134C215.047 391.083 223.453 400.647 223.03 411.75L210.192 411.261C210.357 406.919 207.025 403.299 203.051 402.963C199.575 402.671 196.186 404.954 195.004 408.367C195.018 411.641 195.035 414.888 195.056 418.109C195.155 418.439 195.25 418.77 195.339 419.104L195.064 419.177C195.124 427.961 195.214 436.543 195.341 444.922C202.164 446.382 209.244 447.152 216.503 447.152C222.742 447.152 228.848 446.583 234.773 445.496V373.078C234.396 372.428 233.833 371.552 233.109 370.699C231.597 368.915 230.328 368.304 229.444 368.279H229.442C228.731 368.259 228.101 368.548 227.472 368.901C225.443 370.046 223.816 372.853 222.871 377.07C221.989 381.012 222.049 384.677 222.067 385.298L209.224 385.659C209.195 384.628 209.109 379.732 210.334 374.263C211.496 369.07 214.229 361.615 221.17 357.705L221.173 357.703C222.197 357.127 225.418 355.311 229.806 355.435C231.621 355.486 233.277 355.849 234.773 356.408V336.467C234.632 333.12 233.826 330.338 232.735 328.316C231.404 325.85 229.918 324.929 229 324.694L228.994 324.693C228.437 324.55 227.79 324.567 227.093 324.724C226.407 324.878 225.886 325.118 225.649 325.231L225.637 325.237C222.918 326.53 220.116 330.67 220.607 337.28L207.794 338.231C207.103 328.919 210.552 319.481 218.123 314.729ZM265.409 375.593C263.035 374.422 260.628 374.76 259.675 374.928C255.104 375.741 249.997 380.426 247.621 388.747V442.246C251.631 440.943 255.531 439.394 259.303 437.618L250.681 437.301C251.072 426.711 258.581 417.417 268.372 416.217H268.373C272.142 415.756 275.841 416.567 279.104 418.233C279.107 417.95 279.114 417.669 279.124 417.389V386.439H270.927C270.927 386.535 270.911 384.306 270.082 381.712C269.246 379.1 267.853 376.901 265.639 375.711L265.409 375.593ZM176.712 413.536C175.982 413.44 173.687 413.862 171.141 416.746C168.775 419.426 166.754 423.734 166.635 429.479L159.308 429.326C166.409 434.24 174.174 438.264 182.439 441.237C182.344 434.38 182.274 427.387 182.223 420.262C181.504 418.4 180.586 416.825 179.611 415.653C178.233 413.998 177.151 413.596 176.712 413.536ZM273.22 429.652C272.015 429.054 270.847 428.858 269.935 428.969L269.935 428.97C267.841 429.227 264.902 431.455 263.88 435.319C267.102 433.596 270.219 431.703 273.22 429.652ZM174.375 337.667C170.915 336.695 167.687 338.455 166.832 338.956L166.826 338.96L166.819 338.964C163.466 340.919 160.796 345.168 160.254 350.831C161.241 351.156 161.956 351.479 162.304 351.631C172.356 356.035 177.029 367.497 176.757 378.88L163.912 378.573C164.115 370.072 160.601 364.912 157.149 363.4L157.147 363.399C156.698 363.202 156.215 363.002 155.656 362.875C155.092 362.748 154.68 362.752 154.399 362.816L154.396 362.817C153.678 362.979 151.818 364.007 150.038 367.961C148.539 371.29 147.476 375.969 147.351 381.641V419.626C149.5 421.659 151.737 423.598 154.058 425.437C154.919 418.432 157.719 412.536 161.508 408.243C165.71 403.483 171.812 400.053 178.118 400.765L178.418 400.802L178.422 400.802C179.733 400.978 180.972 401.328 182.133 401.809C182.086 384.862 182.127 367.221 182.204 348.918C181.538 342.613 177.893 338.657 174.375 337.667ZM298.17 405.329C297.467 405.823 296.727 406.469 295.986 407.305C294.976 408.442 294.064 409.842 293.362 411.479C295.042 409.494 296.645 407.442 298.17 405.329ZM116.641 359.188C118.766 376.075 125.078 391.661 134.503 404.874V384.061C134.486 383.207 134.487 382.361 134.503 381.524V376.543C133.803 374.804 132.313 371.474 129.961 368.148C126.928 363.859 123.07 360.427 118.418 359.466C117.91 359.362 117.313 359.247 116.641 359.188ZM313.721 372.642C311.435 367.112 306.44 364.212 302.593 364.392L302.407 364.403C298.262 364.707 293.086 368.87 291.972 375.824V394.044C295.415 391.918 299.356 390.725 303.348 391.114L303.653 391.146L303.657 391.147C304.609 391.26 305.534 391.461 306.43 391.739C309.477 385.696 311.933 379.306 313.721 372.642ZM273.94 278.611C272.837 278.604 270.639 279.376 268.496 282.191C267.126 283.991 265.961 286.44 265.376 289.439C273.823 293.742 278.113 304.105 278.465 314.389L265.624 314.829C265.314 305.776 261.357 301.344 258.612 300.511L258.579 300.501C258.563 300.496 258.175 300.372 257.579 300.319C256.969 300.264 256.288 300.296 255.637 300.498L255.636 300.499C254.159 300.958 252.212 302.442 250.51 305.861C248.838 309.22 247.703 313.918 247.621 319.497V336.247C247.649 337.094 247.65 337.951 247.621 338.816V366.506C250.51 364.409 253.795 362.925 257.427 362.279L257.433 362.277C259 362.001 265.067 360.965 271.406 364.228L271.708 364.387L271.712 364.389C275.024 366.166 277.408 368.599 279.124 371.132V343.827L278.966 343.792C279.061 343.361 279.104 342.867 278.988 342.378C278.695 341.166 277.12 339.593 274.997 339.288C274.353 339.198 273.183 339.112 272.151 339.776C271.409 340.254 270.904 341.028 270.583 342.082C270.253 343.163 270.279 344.046 270.275 343.862L257.43 344.172C257.416 343.558 257.424 341.185 258.293 338.335C259.17 335.457 261.081 331.623 265.195 328.973L265.197 328.973C270.013 325.872 274.896 326.315 276.523 326.529L276.804 326.568L276.81 326.569L276.816 326.57C277.582 326.679 278.355 326.845 279.124 327.064V282.035C278.712 281.546 278.198 280.992 277.604 280.463C276.111 279.136 274.855 278.617 273.943 278.611H273.94ZM127.2 300.021C119.978 313.867 115.881 329.599 115.849 346.3C118.213 346.31 120.047 346.683 121.012 346.882L121.016 346.883C126.515 348.019 130.976 350.761 134.503 353.951V314.943C133.811 308.443 130.841 303.301 127.2 300.021ZM182.674 251.674C175.776 254.135 169.224 257.328 163.112 261.159C164.738 261.512 166.47 262.085 168.228 262.983L168.524 263.137L168.527 263.138C174.628 266.38 177.603 271.764 179.038 275.891C180.471 280.013 180.6 283.504 180.613 284.099L167.768 284.372C167.763 284.269 167.681 282.348 166.903 280.11C166.083 277.752 164.724 275.667 162.499 274.485C160.036 273.179 157.529 273.495 156.616 273.672L156.615 273.673C152.956 274.383 149.085 277.792 147.351 283.543V351.453C147.785 341.787 152.12 332.669 160.333 327.872L160.615 327.708C162.353 326.706 169.193 323.055 177.434 325.186L177.854 325.299L177.857 325.3C179.432 325.743 180.919 326.359 182.308 327.123C182.327 323.553 182.346 319.96 182.366 316.344L182.239 316.349C182.203 315.321 182.227 314.098 182.386 312.735C182.494 293.049 182.607 272.684 182.674 251.674ZM224.41 246.155C230.06 252.039 232.938 260.972 232.675 269.965L219.832 269.589C220.109 260.127 215.678 254.145 211.577 252.691C208.852 251.727 206.044 252.459 204.981 252.782L204.974 252.784L204.968 252.786C201.718 253.766 199.389 255.987 197.733 258.412C196.512 260.2 195.803 261.893 195.482 262.766C195.44 273.26 195.391 283.58 195.337 293.723C198.104 292.15 201.137 291.128 204.256 290.85L204.259 290.85C215.989 289.81 227.186 299.01 230.648 311.934C231.152 312.011 231.665 312.114 232.185 312.247C233.086 312.478 233.949 312.784 234.773 313.153V247.504C231.375 246.88 227.918 246.427 224.41 246.155ZM247.621 290.161C248.834 289.404 250.143 288.779 251.548 288.317L251.824 288.229C252.077 288.15 252.33 288.08 252.58 288.014C253.44 282.729 255.476 278.085 258.272 274.411C262.06 269.432 267.714 265.725 274.017 265.763C275.062 265.769 276.061 265.88 277.011 266.069C268.221 259.444 258.314 254.227 247.621 250.753V290.161ZM134.503 288.115C134.314 288.38 134.127 288.646 133.941 288.912C134.129 289.058 134.317 289.206 134.503 289.356V288.115ZM330 346.5C330 409.174 279.175 460 216.503 460C153.831 460 103 409.174 103 346.5C103 325.915 108.488 306.591 118.083 289.929L118.084 289.928C137.673 255.923 174.407 233 216.497 233C244.381 233 269.933 243.067 289.693 259.758C314.33 280.568 330 311.713 330 346.5Z" fill="#4FDC00"/>
<path d="M119.252 495.087H121.651L143.406 555.305C144.282 557.739 146.072 558.956 148.783 558.956H150.442V562.476H126.303V559.459H128.174C130.618 559.459 132.338 559.157 133.348 558.559C134.037 558.136 134.384 557.492 134.384 556.622C134.384 556.114 134.294 555.571 134.108 555.003L129.24 540.856H105.95L103.214 548.968C102.5 551.131 102.143 552.841 102.143 554.103C102.143 555.576 102.747 556.839 103.954 557.89C105.161 558.941 106.916 559.469 109.229 559.469H111.221V562.486H89.0879V559.142C91.4566 559.142 93.3223 558.584 94.7003 557.467C96.0782 556.351 97.3405 554.234 98.4972 551.106L119.252 495.087ZM117.708 508.002L106.815 537.331H128.239L117.708 508.002Z" fill="#F1F3CC"/>
<path d="M100.055 554.103C100.055 553.623 100.096 553.11 100.171 552.566C99.0396 555.438 97.7002 557.722 96.0135 559.089C95.3361 559.638 94.5887 560.07 93.7823 560.399H103.938C103.454 560.138 103.001 559.828 102.583 559.464C100.965 558.055 100.055 556.236 100.055 554.103ZM109.816 535.244H125.271L117.674 514.086L109.816 535.244ZM136.471 556.623C136.471 558.159 135.796 559.506 134.439 560.338L134.425 560.346L134.411 560.355C134.391 560.366 134.371 560.378 134.351 560.389H145.365C144.971 560.219 144.593 560.014 144.233 559.77C142.906 558.868 142 557.562 141.443 556.014L120.441 497.883L118.334 503.57L131.205 539.418H130.951L136.081 554.324L136.091 554.354C136.336 555.104 136.471 555.867 136.471 556.623ZM104.23 554.103C104.23 554.916 104.528 555.623 105.324 556.316C106.014 556.917 107.202 557.382 109.228 557.382H113.307V564.573H87V557.055H89.0872C91.1366 557.055 92.4869 556.574 93.386 555.846C94.3132 555.094 95.4155 553.42 96.539 550.382L96.5394 550.381L117.799 493H123.115L145.369 554.596L145.37 554.599C145.688 555.484 146.114 556.002 146.578 556.317C147.05 556.637 147.739 556.869 148.782 556.869H152.529V564.564H124.215V557.372H128.173C130.536 557.372 131.762 557.062 132.267 556.771C132.275 556.767 132.28 556.762 132.285 556.759C132.29 556.736 132.297 556.692 132.297 556.623C132.297 556.364 132.25 556.043 132.126 555.66L127.75 542.944H107.448L105.191 549.635C104.503 551.721 104.23 553.176 104.23 554.103Z" fill="#F1F3CC"/>
<path d="M197.63 501.68L200.995 495.087H203.298L204.812 521.238H202.156C200.115 513.72 197.711 508.278 194.935 504.914C191.399 500.639 187.341 498.502 182.775 498.502C179.264 498.502 176.121 499.578 173.345 501.736C170.569 503.893 168.442 507.127 166.958 511.437C165.475 515.746 164.735 521.816 164.735 529.642C164.735 537.467 165.475 543.165 166.958 547.444C168.442 551.724 170.489 554.877 173.099 556.899C175.709 558.921 178.771 559.932 182.277 559.932C187.039 559.932 190.715 558.483 193.315 555.586C195.91 552.69 197.213 548.953 197.213 544.372V538.292C197.213 537.341 196.866 536.612 196.172 536.094C195.478 535.576 194.341 535.319 192.762 535.319H187.658V532.302H213.306V535.319H209.936C208.438 535.319 207.372 535.601 206.728 536.159C206.084 536.717 205.762 537.532 205.762 538.593V563.985H203.052C202.066 560.062 201.035 556.301 199.969 552.705C197.912 556.361 195.468 559.102 192.631 560.932C189.795 562.763 186.581 563.673 182.991 563.673C177.866 563.673 173.119 562.245 168.749 559.393C164.378 556.542 160.923 552.519 158.394 547.334C155.859 542.144 154.592 536.28 154.592 529.742C154.592 523.204 155.864 517.285 158.414 512.085C160.964 506.88 164.449 502.751 168.874 499.689C173.3 496.626 177.776 495.097 182.297 495.097C184.872 495.097 187.336 495.57 189.674 496.51C192.018 497.451 194.668 499.181 197.63 501.69V501.68Z" fill="#F1F3CC"/>
<path d="M162.647 529.642C162.647 521.727 163.39 515.388 164.984 510.757C166.524 506.285 168.776 502.729 171.842 500.264C171.25 500.613 170.656 500.993 170.061 501.405C165.951 504.249 162.693 508.094 160.288 513.004L160.287 513.004C157.896 517.881 156.678 523.479 156.678 529.742C156.678 536.005 157.891 541.549 160.268 546.418L160.269 546.419C162.651 551.301 165.867 555.021 169.888 557.646C170.904 558.308 171.939 558.886 172.994 559.381C172.595 559.122 172.203 558.845 171.82 558.549C168.791 556.203 166.554 552.652 164.986 548.128C163.392 543.532 162.647 537.568 162.647 529.642ZM199.717 502.181V506.194L196.308 503.306L196.542 503.584L196.544 503.586C198.755 506.265 200.673 510.029 202.347 514.783L201.424 498.836L199.717 502.181ZM199.299 544.372C199.299 547.201 198.84 549.794 197.898 552.118C197.982 551.974 198.066 551.829 198.149 551.682L200.567 547.383L201.969 552.112C202.549 554.066 203.117 556.069 203.674 558.12V538.593C203.674 537.091 204.148 535.634 205.36 534.583C205.438 534.515 205.517 534.451 205.599 534.389H197.375C197.39 534.4 197.405 534.41 197.419 534.421C198.695 535.373 199.299 536.753 199.299 538.292V544.372ZM166.822 529.642C166.822 537.366 167.556 542.798 168.929 546.761C170.328 550.796 172.185 553.552 174.376 555.249C176.596 556.969 179.202 557.845 182.276 557.845C186.454 557.845 189.452 556.632 191.56 554.411L191.761 554.193C193.954 551.744 195.125 548.533 195.125 544.372V538.292C195.125 537.93 195.035 537.851 194.923 537.767C194.784 537.664 194.218 537.407 192.762 537.407H185.57V530.215H215.392V537.407H209.936C208.601 537.407 208.164 537.676 208.094 537.736C208.019 537.802 207.849 537.973 207.849 538.593V566.072H201.424L201.027 564.494C200.436 562.144 199.829 559.853 199.208 557.622C197.596 559.682 195.786 561.38 193.763 562.686C190.565 564.749 186.953 565.76 182.99 565.76C177.452 565.76 172.309 564.21 167.607 561.141C162.889 558.063 159.194 553.736 156.517 548.249C153.826 542.739 152.504 536.555 152.504 529.742C152.504 522.931 153.831 516.69 156.539 511.166C159.234 505.667 162.945 501.253 167.686 497.973C172.393 494.715 177.276 493.01 182.296 493.01C185.132 493.01 187.862 493.532 190.452 494.574L190.452 494.575C192.488 495.392 194.649 496.704 196.934 498.45L199.716 493H205.267L207.022 523.325H200.56L200.142 521.785C198.126 514.361 195.816 509.263 193.324 506.242C190.093 502.336 186.585 500.589 182.774 500.589C179.727 500.589 177.035 501.511 174.625 503.384C172.252 505.228 170.321 508.076 168.931 512.116C167.558 516.104 166.822 521.906 166.822 529.642Z" fill="#F1F3CC"/>
<path d="M217.83 496.596H249.045C255.105 496.596 259.812 498.095 263.157 501.087C266.501 504.079 268.176 508.007 268.176 512.865C268.176 515.767 267.512 518.357 266.189 520.62C264.867 522.888 262.956 524.693 260.456 526.041C257.957 527.389 254.029 528.359 248.678 528.953C252.576 530.109 255.256 531.241 256.73 532.352C258.203 533.464 259.375 534.902 260.265 536.662C261.15 538.427 262.171 542.018 263.333 547.444C264.163 551.327 265.043 553.977 265.968 555.4C266.677 556.497 267.441 557.045 268.261 557.045C269.081 557.045 269.896 556.371 270.62 555.023C271.344 553.675 271.787 551.297 271.953 547.887H275.463C274.935 558.096 271.465 563.2 265.043 563.2C263.021 563.2 261.271 562.647 259.792 561.536C258.314 560.424 257.197 558.79 256.448 556.628C255.865 555.008 255.216 550.759 254.497 543.884C254.084 539.891 253.426 537.055 252.525 535.375C251.625 533.695 250.222 532.342 248.311 531.321C246.4 530.301 244.117 529.793 241.462 529.793H236.438V555.627C236.438 556.783 236.694 557.598 237.207 558.066C237.856 558.659 238.867 558.956 240.244 558.956H245.993V562.476H217.83V558.956H223.654C224.936 558.956 225.882 558.659 226.485 558.066C227.089 557.472 227.39 556.658 227.39 555.627V503.682C227.39 502.495 227.084 501.6 226.465 501.006C225.846 500.413 224.911 500.116 223.654 500.116H217.83V496.596ZM236.438 526.77H243.619C248.432 526.77 252.198 525.784 254.919 523.813C257.64 521.842 259.003 518.341 259.003 513.307C259.003 509.842 258.49 507.102 257.464 505.09C256.438 503.078 255.09 501.7 253.426 500.956C251.756 500.217 248.477 499.845 243.579 499.845C240.355 499.845 238.359 500.091 237.589 500.579C236.825 501.067 236.438 501.907 236.438 503.088V526.77Z" fill="#F1F3CC"/>
<path d="M266.088 512.865C266.088 508.546 264.627 505.203 261.765 502.642C259.946 501.014 257.594 499.851 254.638 499.222C256.655 500.232 258.198 501.938 259.322 504.142C260.557 506.563 261.089 509.673 261.089 513.308C261.089 518.645 259.645 522.94 256.181 525.474C257.519 525.091 258.609 524.665 259.465 524.204C261.656 523.022 263.273 521.477 264.386 519.568L264.387 519.566C265.503 517.656 266.088 515.436 266.088 512.865ZM253.357 532.836C253.733 533.322 254.07 533.839 254.364 534.389C255.469 536.45 256.155 539.636 256.572 543.667L256.705 544.918C257.014 547.764 257.308 550.093 257.586 551.911C257.871 553.775 258.124 554.99 258.327 555.664L258.411 555.92L258.415 555.932L258.419 555.944C259.064 557.805 259.969 559.058 261.046 559.867C262.127 560.68 263.426 561.113 265.042 561.113C267.588 561.113 269.397 560.157 270.726 558.214C270.051 558.762 269.235 559.132 268.261 559.132C266.386 559.132 265.072 557.859 264.215 556.534V556.533C263.061 554.756 262.122 551.766 261.291 547.881C260.123 542.422 259.146 539.089 258.399 537.598V537.597C257.639 536.098 256.666 534.919 255.472 534.018C254.989 533.654 254.291 533.258 253.357 532.836ZM270.262 512.865C270.262 516.096 269.519 519.057 267.991 521.673C266.458 524.299 264.253 526.364 261.446 527.878C260.091 528.609 258.423 529.218 256.467 529.722C257.041 530.036 257.549 530.357 257.986 530.686C259.736 532.007 261.106 533.702 262.127 535.72L262.129 535.724L262.13 535.726C263.089 537.638 264.085 541.14 265.157 546.014L265.373 547.007V547.008C266.15 550.642 266.919 552.898 267.585 554.048L267.717 554.263L267.72 554.267C267.926 554.585 268.093 554.768 268.207 554.87C268.345 554.728 268.547 554.471 268.781 554.035C269.264 553.136 269.702 551.178 269.867 547.785L269.964 545.8H277.66L277.546 547.995C277.274 553.257 276.237 557.533 274.188 560.546C272.045 563.696 268.911 565.287 265.042 565.287C262.614 565.287 260.413 564.614 258.538 563.204C256.664 561.795 255.338 559.787 254.484 557.334V557.335C254.115 556.312 253.783 554.659 253.459 552.542C253.127 550.371 252.781 547.554 252.42 544.101V544.098C252.012 540.144 251.38 537.658 250.685 536.361C250.004 535.09 248.923 534.015 247.327 533.162C245.781 532.336 243.851 531.88 241.461 531.88H238.524V555.627C238.524 556.063 238.574 556.331 238.62 556.477C238.631 556.511 238.64 556.535 238.647 556.551C238.785 556.655 239.202 556.869 240.244 556.869H248.079V564.563H215.742V556.869H223.653C224.666 556.869 224.969 556.628 225.021 556.577C225.14 556.46 225.303 556.23 225.303 555.627V503.682C225.303 502.832 225.086 502.576 225.019 502.512C224.937 502.434 224.619 502.203 223.653 502.203H215.742V494.509H249.045C255.436 494.509 260.704 496.092 264.548 499.531C268.374 502.954 270.262 507.467 270.262 512.865ZM229.477 555.627C229.477 557.085 229.036 558.484 227.948 559.554C227.594 559.902 227.2 560.176 226.779 560.389H236.959C236.542 560.186 236.151 559.929 235.797 559.606V559.605C234.637 558.545 234.35 556.992 234.35 555.627V503.088C234.35 501.433 234.924 499.804 236.466 498.82L236.471 498.816C236.545 498.769 236.623 498.725 236.702 498.683H226.752C227.167 498.893 227.557 499.162 227.909 499.5C229.08 500.623 229.477 502.158 229.477 503.682V555.627ZM238.524 524.683H243.618C248.175 524.683 251.454 523.746 253.694 522.123C255.643 520.711 256.915 518.019 256.915 513.308C256.915 510.012 256.421 507.64 255.604 506.038C254.742 504.348 253.708 503.369 252.573 502.861H252.572C252.027 502.622 251.041 502.374 249.478 502.197C247.942 502.023 245.982 501.932 243.578 501.932C242.008 501.932 240.797 501.992 239.917 502.1C238.992 502.214 238.694 502.353 238.702 502.344C238.669 502.366 238.648 502.389 238.622 502.444C238.585 502.525 238.524 502.718 238.524 503.088V524.683Z" fill="#F1F3CC"/>
<path d="M308.388 495.243C313.502 495.243 318.295 496.702 322.766 499.628C327.236 502.55 330.737 506.629 333.266 511.864C335.796 517.099 337.058 522.998 337.058 529.556C337.058 536.114 335.786 542.033 333.246 547.314C330.701 552.594 327.211 556.713 322.766 559.665C318.32 562.617 313.613 564.091 308.634 564.091C303.655 564.091 299.2 562.647 294.935 559.751C290.67 556.859 287.246 552.72 284.661 547.334C282.076 541.948 280.783 535.978 280.783 529.42C280.783 522.863 282.035 517.114 284.54 511.909C287.044 506.699 290.469 502.621 294.814 499.669C299.164 496.717 303.685 495.243 308.393 495.243H308.388ZM309.041 498.668C303.711 498.668 299.386 501.072 296.076 505.88C292.767 510.687 291.113 518.518 291.113 529.38C291.113 541.158 292.808 549.305 296.197 553.811C299.587 558.322 303.786 560.575 308.79 560.575C312.29 560.575 315.368 559.549 318.018 557.503C320.668 555.456 322.781 552.207 324.355 547.756C325.929 543.306 326.713 537.462 326.713 530.22C326.713 522.33 325.974 516.164 324.501 511.728C323.022 507.293 320.915 504.009 318.184 501.871C315.448 499.734 312.401 498.668 309.036 498.668H309.041Z" fill="#F1F3CC"/>
<path d="M334.97 529.557C334.97 523.272 333.762 517.689 331.386 512.772C329.007 507.847 325.749 504.072 321.623 501.376L321.622 501.375C320.741 500.798 319.848 500.284 318.944 499.832C319.022 499.889 319.1 499.946 319.178 500.004L319.468 500.227L319.47 500.228C322.519 502.614 324.771 506.146 326.331 510.631L326.48 511.069L326.48 511.07C328.056 515.814 328.8 522.237 328.8 530.22C328.8 537.586 328.006 543.692 326.322 548.452C324.666 553.133 322.366 556.781 319.293 559.155C319.068 559.328 318.84 559.495 318.609 559.656C319.62 559.159 320.621 558.584 321.611 557.926C325.713 555.203 328.966 551.386 331.365 546.408C333.753 541.441 334.97 535.838 334.97 529.557ZM339.144 529.557C339.144 536.391 337.817 542.624 335.126 548.219L335.126 548.22C332.435 553.803 328.709 558.224 323.919 561.404C319.157 564.566 314.052 566.178 308.633 566.178C303.208 566.178 298.348 564.592 293.763 561.478C289.147 558.348 285.497 553.902 282.778 548.237C280.046 542.543 278.695 536.26 278.695 529.421C278.695 522.585 280.003 516.523 282.658 511.005C285.306 505.497 288.961 501.121 293.64 497.942L293.641 497.942C298.294 494.785 303.216 493.158 308.387 493.156V493.156H308.392V493.156C313.928 493.157 319.113 494.744 323.907 497.882C328.723 501.029 332.465 505.411 335.145 510.956C337.828 516.509 339.144 522.725 339.144 529.557ZM282.87 529.421C282.87 535.697 284.104 541.353 286.541 546.431C288.992 551.538 292.192 555.37 296.105 558.023L296.107 558.024C297.386 558.893 298.676 559.616 299.991 560.197C297.974 558.944 296.151 557.225 294.528 555.065V555.065C290.697 549.971 289.025 541.206 289.025 529.38C289.025 518.407 290.677 510.042 294.357 504.696C295.942 502.393 297.769 500.561 299.827 499.225C298.538 499.81 297.258 500.532 295.986 501.396L295.985 501.395C291.975 504.121 288.781 507.902 286.42 512.813V512.814C284.066 517.707 282.87 523.14 282.87 529.421ZM293.199 529.38C293.199 540.926 294.864 548.402 297.727 552.37L297.865 552.557L297.865 552.558C300.917 556.62 304.531 558.488 308.789 558.488C311.85 558.488 314.474 557.602 316.742 555.851C318.969 554.131 320.894 551.281 322.387 547.06C323.851 542.92 324.626 537.338 324.626 530.22C324.626 522.422 323.89 516.513 322.519 512.386V512.386C321.127 508.21 319.211 505.326 316.897 503.515V503.515C314.518 501.656 311.92 500.756 309.038 500.755C304.468 500.756 300.757 502.759 297.795 507.063C294.856 511.333 293.199 518.628 293.199 529.38Z" fill="#F1F3CC"/>
<path d="M137.839 592.61C135.058 593.304 132.277 594.003 129.496 594.697C129.481 594.235 129.446 593.571 129.35 592.781C129.23 591.806 128.973 587.938 127.198 585.786C125.086 583.216 121.41 581.934 116.179 581.934C109.254 581.934 105.789 584.423 105.789 589.407C105.789 593.143 109.662 596.347 117.412 599.022C132.358 604.157 139.831 611.751 139.831 621.804C139.831 627.698 137.734 632.43 133.545 635.996C129.35 639.566 123.778 641.352 116.823 641.352C115.712 641.352 103.436 641.382 96.9735 634.361C95.1882 632.425 94.0315 630.162 94.0265 630.162C92.2965 626.783 91.9797 623.629 91.9395 621.819H100.283C100.107 622.779 99.9557 624.258 100.283 625.993C100.967 629.644 103.275 631.867 104.12 632.661C108.178 636.463 113.318 636.388 114.902 636.388C121.978 636.388 125.518 633.607 125.518 628.05C125.518 623.916 121.279 620.285 112.805 617.162C100.564 612.666 94.4389 605.48 94.4389 595.608C94.4389 590.02 96.4807 585.514 100.569 582.095C104.653 578.68 110.024 576.97 116.677 576.97C120.535 576.97 127.807 577.066 133.077 582.602C136.527 586.223 137.508 590.498 137.839 592.61Z" fill="#F1F3CC"/>
<path d="M103.701 589.407C103.701 586.372 104.794 583.814 107.168 582.107C109.415 580.492 112.529 579.847 116.179 579.847C121.674 579.847 126.119 581.186 128.81 584.461H128.809C130.013 585.921 130.608 587.815 130.931 589.273C131.18 590.395 131.305 591.458 131.372 592.076C131.968 591.927 132.564 591.779 133.16 591.629C133.902 591.443 134.645 591.257 135.388 591.071C134.86 589.053 133.795 586.382 131.565 584.042L131.564 584.042C126.968 579.213 120.567 579.057 116.677 579.057C110.387 579.057 105.529 580.667 101.907 583.696L101.907 583.695C98.3189 586.696 96.5252 590.603 96.5251 595.607C96.5251 600.072 97.8951 603.85 100.619 607.047C103.289 610.181 107.354 612.861 112.975 614.998L113.524 615.203L113.526 615.204C117.869 616.805 121.309 618.597 123.696 620.642C126.107 622.707 127.604 625.18 127.604 628.05C127.604 631.303 126.543 634.066 124.152 635.944C121.857 637.747 118.656 638.475 114.901 638.475C113.323 638.475 107.403 638.598 102.692 634.185L102.689 634.182C101.779 633.326 99.0428 630.715 98.2303 626.377V626.377C98.0628 625.487 98.0016 624.655 98.0024 623.906H94.2036C94.4214 625.41 94.8875 627.258 95.8705 629.186C95.8732 629.191 95.8757 629.195 95.8773 629.198C95.888 629.218 95.8991 629.239 95.9152 629.269C95.9462 629.326 95.9929 629.411 96.0541 629.519C96.1769 629.736 96.3594 630.048 96.5934 630.417C97.067 631.163 97.7275 632.101 98.5068 632.947L98.5083 632.948C101.314 635.996 105.503 637.617 109.346 638.45C113.144 639.272 116.316 639.265 116.822 639.265C123.415 639.265 128.465 637.579 132.191 634.407L132.531 634.11C135.993 631.009 137.743 626.969 137.743 621.804C137.743 613.119 131.399 606.034 116.733 600.996L116.73 600.995C112.748 599.621 109.576 598.051 107.363 596.22C105.123 594.367 103.701 592.094 103.701 589.407ZM107.876 589.407C107.876 590.456 108.391 591.653 110.024 593.005C111.684 594.378 114.322 595.748 118.089 597.048C133.315 602.279 141.917 610.383 141.917 621.804C141.917 628.059 139.731 633.258 135.329 637.207L134.897 637.585C130.234 641.554 124.14 643.439 116.822 643.439C116.217 643.439 112.695 643.446 108.462 642.529C104.274 641.622 99.0949 639.748 95.4383 635.776C94.4323 634.685 93.6219 633.524 93.0696 632.654C92.9793 632.512 92.8957 632.376 92.8182 632.249H92.7494L92.1679 631.113C90.2453 627.357 89.8962 623.862 89.8518 621.865L89.8047 619.732H102.786L102.335 622.195C102.198 622.941 102.083 624.049 102.287 625.345L102.333 625.607L102.333 625.609C102.888 628.57 104.765 630.403 105.546 631.138L105.706 631.286C109.087 634.328 113.336 634.301 114.901 634.301C118.222 634.301 120.329 633.639 121.574 632.662C122.722 631.76 123.43 630.354 123.43 628.05C123.43 626.787 122.808 625.377 120.981 623.812C119.13 622.227 116.214 620.643 112.085 619.121L111.495 618.901C105.443 616.6 100.703 613.581 97.442 609.755C94.0433 605.766 92.3511 601.015 92.3511 595.607C92.3512 589.437 94.6407 584.332 99.2297 580.494C103.775 576.693 109.659 574.883 116.677 574.883C120.501 574.883 128.642 574.919 134.587 581.163C138.464 585.232 139.541 590.001 139.901 592.287L140.197 594.173L138.344 594.636C136.954 594.982 135.565 595.33 134.174 595.678C132.784 596.026 131.392 596.375 130.001 596.722L127.493 597.348L127.409 594.766C127.396 594.346 127.364 593.747 127.278 593.037L127.22 592.514C127.155 591.914 127.061 591.099 126.856 590.177C126.578 588.92 126.157 587.805 125.587 587.114L125.585 587.111C124.052 585.246 121.144 584.021 116.179 584.021C112.904 584.021 110.822 584.621 109.605 585.496C108.515 586.279 107.876 587.458 107.876 589.407Z" fill="#F1F3CC"/>
<path d="M193.692 578.066V584.604H178.102V640.426H158.991V584.604H143.904V578.066H193.692Z" fill="#F1F3CC"/>
<path d="M195.778 575.979V586.691H180.188V642.513H156.904V586.691H141.816V575.979H195.778ZM145.991 582.517H161.078V638.339H176.014V582.517H191.604V580.153H145.991V582.517Z" fill="#F1F3CC"/>
<path d="M226.465 578.066L243.825 640.426H225.71L221.994 626.848H203.14L199.152 640.426H192.111L210.568 578.066H226.465ZM204.981 620.813H220.244L212.906 593.244L204.981 620.813Z" fill="#F1F3CC"/>
<path d="M228.05 575.979L246.572 642.513H224.117L220.401 628.935H204.702L200.714 642.513H189.316L209.009 575.979H228.05ZM194.905 638.339H197.589L201.577 624.761H223.586L227.302 638.339H241.077L224.879 580.153H212.126L194.905 638.339ZM222.958 622.9H202.209L212.983 585.42L222.958 622.9ZM207.751 618.726H217.528L212.828 601.067L207.751 618.726Z" fill="#F1F3CC"/>
<path d="M292.26 578.066V584.604H277.173V640.426H258.063V584.604H242.473V578.066H292.26Z" fill="#F1F3CC"/>
<path d="M294.347 575.979V586.691H279.26V642.513H255.975V586.691H240.385V575.979H294.347ZM244.559 582.517H260.149V638.339H275.085V582.517H290.172V580.153H244.559V582.517Z" fill="#F1F3CC"/>
<path d="M341.912 592.61C339.131 593.304 336.35 594.003 333.569 594.697C333.553 594.235 333.518 593.571 333.423 592.781C333.302 591.806 333.046 587.938 331.27 585.786C329.158 583.216 325.482 581.934 320.252 581.934C313.327 581.934 309.862 584.423 309.862 589.407C309.862 593.143 313.734 596.347 321.484 599.022C336.43 604.157 343.903 611.751 343.903 621.804C343.903 627.698 341.806 632.43 337.617 635.996C333.423 639.566 327.851 641.352 320.895 641.352C319.784 641.352 307.508 641.382 301.046 634.361C299.26 632.425 298.104 630.162 298.099 630.162C296.369 626.783 296.052 623.629 296.012 621.819H304.355C304.179 622.779 304.028 624.258 304.355 625.993C305.039 629.644 307.347 631.867 308.192 632.661C312.25 636.463 317.39 636.388 318.974 636.388C326.05 636.388 329.591 633.607 329.591 628.05C329.591 623.916 325.351 620.285 316.877 617.162C304.637 612.666 298.511 605.48 298.511 595.608C298.511 590.02 300.553 585.514 304.642 582.095C308.725 578.68 314.096 576.97 320.75 576.97C324.607 576.97 331.879 577.066 337.149 582.602C340.599 586.223 341.58 590.498 341.912 592.61Z" fill="#F1F3CC"/>
<path d="M307.776 589.407C307.776 586.372 308.869 583.814 311.242 582.107C313.489 580.492 316.603 579.847 320.253 579.847C325.748 579.847 330.193 581.186 332.884 584.461H332.883C334.087 585.921 334.682 587.815 335.005 589.273C335.254 590.395 335.379 591.458 335.446 592.076C336.042 591.927 336.638 591.779 337.234 591.629C337.977 591.443 338.719 591.257 339.462 591.071C338.934 589.053 337.869 586.382 335.64 584.042L335.639 584.042C331.042 579.213 324.641 579.057 320.751 579.057C314.461 579.057 309.603 580.667 305.981 583.696L305.981 583.695C302.393 586.696 300.599 590.603 300.599 595.607C300.599 600.072 301.969 603.85 304.693 607.047C307.364 610.181 311.428 612.861 317.049 614.998L317.598 615.203L317.6 615.204C321.944 616.805 325.383 618.597 327.77 620.642C330.182 622.707 331.679 625.18 331.679 628.05C331.679 631.303 330.617 634.066 328.226 635.944C325.931 637.747 322.73 638.475 318.975 638.475C317.397 638.475 311.477 638.598 306.766 634.185L306.763 634.182C305.853 633.326 303.117 630.715 302.305 626.377V626.377C302.137 625.487 302.076 624.655 302.077 623.906H298.278C298.496 625.41 298.962 627.258 299.945 629.186C299.947 629.191 299.95 629.195 299.952 629.198C299.962 629.218 299.973 629.239 299.989 629.269C300.02 629.326 300.067 629.411 300.128 629.519C300.251 629.736 300.434 630.048 300.668 630.417C301.141 631.163 301.802 632.101 302.581 632.947L302.582 632.948C305.388 635.996 309.577 637.617 313.42 638.45C317.218 639.272 320.391 639.265 320.897 639.265C327.49 639.265 332.539 637.579 336.265 634.407L336.606 634.11C340.067 631.009 341.817 626.969 341.817 621.804C341.817 613.119 335.473 606.034 320.807 600.996L320.804 600.995C316.823 599.621 313.65 598.051 311.437 596.22C309.197 594.367 307.776 592.094 307.776 589.407ZM311.95 589.407C311.95 590.456 312.465 591.653 314.098 593.005C315.758 594.378 318.396 595.748 322.163 597.048C337.389 602.279 345.991 610.383 345.991 621.804C345.991 628.059 343.805 633.258 339.403 637.207L338.971 637.585C334.308 641.554 328.214 643.439 320.897 643.439C320.291 643.439 316.77 643.446 312.536 642.529C308.349 641.622 303.169 639.748 299.513 635.776C298.507 634.685 297.696 633.524 297.144 632.654C297.054 632.512 296.97 632.376 296.892 632.249H296.824L296.242 631.113C294.32 627.357 293.97 623.862 293.926 621.865L293.879 619.732H306.86L306.409 622.195C306.272 622.941 306.157 624.049 306.362 625.345L306.407 625.607L306.407 625.609C306.962 628.57 308.839 630.403 309.62 631.138L309.78 631.286C313.162 634.328 317.41 634.301 318.975 634.301C322.297 634.301 324.404 633.639 325.648 632.662C326.796 631.76 327.505 630.354 327.505 628.05C327.505 626.787 326.882 625.377 325.055 623.812C323.205 622.227 320.288 620.643 316.159 619.121L315.569 618.901C309.517 616.6 304.777 613.581 301.516 609.755C298.118 605.766 296.425 601.015 296.425 595.607C296.425 589.437 298.715 584.332 303.304 580.494C307.849 576.693 313.733 574.883 320.751 574.883C324.575 574.883 332.717 574.919 338.661 581.163C342.538 585.232 343.616 590.001 343.975 592.287L344.271 594.173L342.418 594.636C341.029 594.982 339.639 595.33 338.248 595.678C336.858 596.026 335.466 596.375 334.075 596.722L331.568 597.348L331.484 594.766C331.47 594.346 331.438 593.747 331.353 593.037L331.294 592.514C331.229 591.914 331.135 591.099 330.931 590.177C330.652 588.92 330.231 587.805 329.661 587.114L329.659 587.111C328.126 585.246 325.218 584.021 320.253 584.021C316.978 584.021 314.896 584.621 313.679 585.496C312.589 586.279 311.95 587.458 311.95 589.407Z" fill="#F1F3CC"/>
<rect width="306" height="4" rx="2" transform="matrix(1 0 0 -1 60 702)" fill="#4FDC00"/>
<rect width="4" height="4" rx="2" transform="matrix(1 0 0 -1 362 702)" fill="#F1F3CC"/>
</svg>
