<?xml version="1.0" encoding="utf-8"?>
<!-- Generator: Adobe Illustrator 28.0.0, SVG Export Plug-In . SVG Version: 6.00 Build 0)  -->
<svg version="1.1" id="Camada_1" xmlns="http://www.w3.org/2000/svg" xmlns:xlink="http://www.w3.org/1999/xlink" x="0px" y="0px"
	 viewBox="0 0 1366 768" style="enable-background:new 0 0 1366 768;" xml:space="preserve">
<style type="text/css">
	.st0{fill:#00491E;}
	.st1{fill:#4FDC00;}
	.st2{fill:#F1F3CC;}
	.st3{fill:#F1F3CC;stroke:#F1F3CC;stroke-width:8.2973;stroke-miterlimit:10;}
	.st4{fill:none;stroke:#4FDC00;stroke-width:24.892;stroke-miterlimit:10;}
</style>
<g>
	<path class="st0" d="M3534.9,670.5h-159.9c-27.1,0-49.1-22-49.1-49.1V146.6c0-27.1,22-49.1,49.1-49.1h159.9
		c27.1,0,49.1,22,49.1,49.1v474.9C3584,648.5,3562,670.5,3534.9,670.5z"/>
	<path class="st1" d="M3220.6,670.5h-165.5c-25.5,0-46.3-20.7-46.3-46.3V143.8c0-25.5,20.7-46.3,46.3-46.3h165.5
		c25.5,0,46.3,20.7,46.3,46.3v480.5C3266.9,649.8,3246.2,670.5,3220.6,670.5z"/>
	<path class="st2" d="M3855.4,670.5h-166.5c-25.3,0-45.7-20.5-45.7-45.7V143.2c0-25.3,20.5-45.7,45.7-45.7h166.5
		c25.3,0,45.7,20.5,45.7,45.7v481.5C3901.1,650,3880.6,670.5,3855.4,670.5z"/>
</g>
<g>
	<g>
		<g>
			<path class="st3" d="M714.3,244.3h5.5L763,364c1.7,4.8,5.3,7.3,10.7,7.3h3.8v6.6h-48.1v-6.6h3.8c5,0,8.5-0.6,10.6-1.8
				c1.4-0.8,2.1-2.1,2.1-3.8c0-1-0.2-2.1-0.6-3.2l-10-27.8h-47.7l-5.6,15.9c-1.5,4.2-2.2,7.6-2.2,10.1c0,2.9,1.2,5.4,3.7,7.4
				c2.5,2.1,6.1,3.1,10.8,3.1h4.1v6.6h-43.7v-6.6c4.7,0,8.4-1.1,11.1-3.3c2.7-2.2,5.2-6.4,7.5-12.6L714.3,244.3z M711.9,269.5
				l-21.7,58.3h42.6L711.9,269.5z"/>
			<path class="st3" d="M870.4,257.4l6.7-13.1h5.5l3,52.2h-5.3c-4.1-15-8.9-25.9-14.4-32.6c-7.1-8.5-15.2-12.8-24.3-12.8
				c-7,0-13.3,2.2-18.8,6.5s-9.8,10.8-12.7,19.4c-3,8.6-4.4,20.7-4.4,36.3c0,15.2,1.5,27,4.4,35.5c3,8.5,7,14.8,12.3,18.9
				c5.2,4,11.3,6.1,18.3,6.1c9.5,0,16.8-2.9,22-8.7c5.2-5.8,7.8-13.2,7.8-22.4v-12.3c0-1.9-0.7-3.5-2.1-4.5
				c-1.4-1.1-3.7-1.6-6.8-1.6h-10.2v-6.2h50.6v6.2h-6.9c-3,0-5.2,0.6-6.5,1.7s-2,2.8-2,5v50h-5.4c-2-7.8-4-15.2-6.1-22.4
				c-4.1,7.3-8.9,12.7-14.6,16.3c-5.6,3.6-12,5.4-19.1,5.4c-10.2,0-19.6-2.8-28.3-8.5c-8.7-5.7-15.5-13.6-20.6-23.9
				c-5-10.3-7.5-21.9-7.5-34.9c0-13,2.5-24.7,7.6-35c5.1-10.3,12-18.5,20.8-24.6c8.8-6.1,17.7-9.1,26.6-9.1c5.1,0,10,0.9,14.6,2.8
				C859.3,249,864.6,252.4,870.4,257.4z"/>
			<path class="st3" d="M910.7,247.1H973c12.1,0,21.4,3,28.1,8.9c6.7,6,10,13.8,10,23.5c0,5.8-1.3,10.9-4,15.4
				c-2.6,4.5-6.4,8.1-11.4,10.8c-5,2.7-12.8,4.6-23.4,5.8c7.8,2.3,13.1,4.6,16,6.8c2.9,2.2,5.3,5.1,7,8.6c1.8,3.5,3.8,10.7,6.1,21.5
				c1.7,7.7,3.4,13,5.3,15.8c1.4,2.2,2.9,3.3,4.6,3.3c1.7,0,3.2-1.3,4.7-4c1.4-2.7,2.3-7.4,2.6-14.2h5.5c-1,20.1-7.9,30.1-20.5,30.1
				c-4,0-7.4-1.1-10.3-3.3s-5.1-5.4-6.6-9.6c-1.1-3.2-2.4-11.5-3.8-25c-0.8-7.8-2.1-13.4-3.9-16.7c-1.8-3.3-4.5-6-8.3-8
				c-3.8-2-8.2-3-13.5-3h-9.9V365c0,2.2,0.5,3.7,1.6,4.6c1.3,1.1,3.3,1.7,6.1,1.7h11.6v6.6h-56v-6.6h11.8c2.6,0,4.5-0.6,5.7-1.7
				c1.2-1.1,1.8-2.7,1.8-4.6V260.4c0-2.2-0.6-3.9-1.9-5c-1.3-1.1-3.2-1.7-5.7-1.7h-11.8V247.1z M947.5,307.2h14.3
				c9.6,0,17.1-2,22.5-5.9c5.4-3.9,8.1-10.9,8.1-20.9c0-6.9-1-12.3-3.1-16.3c-2-4-4.7-6.7-8-8.2s-9.8-2.2-19.6-2.2
				c-6.4,0-10.4,0.5-11.9,1.5c-1.5,1-2.3,2.6-2.3,5V307.2z"/>
			<path class="st3" d="M1091.1,244.3c10.2,0,19.7,2.9,28.6,8.7c8.9,5.8,15.8,13.9,20.9,24.3c5,10.4,7.5,22.1,7.5,35.2
				s-2.5,24.8-7.6,35.3c-5.1,10.5-12,18.7-20.8,24.6c-8.8,5.9-18.2,8.8-28.1,8.8c-9.7,0-18.8-2.9-27.2-8.6
				c-8.5-5.8-15.3-14-20.4-24.7c-5.1-10.7-7.7-22.6-7.7-35.6c0-12.9,2.5-24.5,7.5-34.8c5-10.4,11.8-18.5,20.4-24.3
				C1072.7,247.2,1081.7,244.3,1091.1,244.3z M1092.4,251.1c-10.6,0-19.2,4.8-25.8,14.3c-6.6,9.6-9.9,25.1-9.9,46.7
				c0,23.4,3.4,39.6,10.1,48.6c6.7,9,15.1,13.5,25,13.5c7,0,13.1-2,18.4-6.1c5.3-4.1,9.5-10.5,12.6-19.4c3.1-8.9,4.7-20.5,4.7-34.9
				c0-15.7-1.5-27.9-4.4-36.8c-2.9-8.8-7.1-15.4-12.6-19.6C1105.1,253.2,1099.1,251.1,1092.4,251.1z"/>
		</g>
	</g>
	<g>
		<path class="st4" d="M545.5,222.1c0,171.7,0,264.5,0,314.8"/>
		<path class="st4" d="M545.5,222.1"/>
		<path class="st4" d="M545.5,218.4"/>
		<path class="st4" d="M545.5,218.4"/>
		<path class="st4" d="M459.6,598.8"/>
		<path class="st4" d="M459.6,181.1c0,136.3,0,274.2,0,410.5"/>
		<path class="st4" d="M459.6,181.1"/>
		<path class="st4" d="M459.6,169.2"/>
		<path class="st4" d="M358.7,598.8"/>
		<path class="st4" d="M358.7,174.8c-0.3,157-2.3,295.6-0.2,412.9"/>
		<path class="st4" d="M265.3,228.5"/>
		<path class="st4" d="M265.3,527c0-93.5,0-186.5,0-280.1"/>
		<path class="st4" d="M265.3,527"/>
		<path class="st4" d="M252.3,441.9"/>
		<path class="st4" d="M265.3,440c-1.7-4.7-14.2-37.4-41.1-43c-2.7-0.6-8.3-1.6-14.9,0c-0.9,0.2-1.8,0.5-2.7,0.8"/>
		<path class="st4" d="M265.3,322.4c-2.3-23.8-17.5-41.7-34.4-47"/>
		<path class="st4" d="M265.3,456.8c-0.6-28.7,9.6-50.1,23.3-53.2c5.7-1.3,11,1,13.1,1.9c13.1,5.7,21,21.8,20.5,41.1"/>
		<path class="st4" d="M265.3,260.5c4-15.4,14.8-27.1,28-29.6c2.8-0.5,11.1-1.7,19.6,2.8c16.1,8.6,16.8,28.9,16.8,29.9"/>
		<path class="st4" d="M357.8,325.3c-0.1-3.1,0.2-7.4,1.8-12.2c4.6-13,17.1-23.3,29.5-24.4c17.9-1.6,38.3,15.9,39.6,42"/>
		<path class="st4" d="M459.6,369.1c0.7-20.3-8.4-36.1-20.5-39.2c-7-1.8-13.3,1.1-14.9,1.9c-11.3,5.4-18,19.3-16.8,35.5"/>
		<path class="st4" d="M410.1,459.6c-0.1-3.2-0.6-33.2,16.8-43c1.6-0.9,5.3-2.9,10.3-2.8c13.9,0.4,21.9,17.6,22.4,18.7"/>
		<path class="st4" d="M356.9,507.3c1-15.7,14.8-27.4,29.9-26.1c14.4,1.2,25.8,14,25.2,29"/>
		<path class="st4" d="M458.4,509.4"/>
		<path class="st4" d="M459.6,520.8"/>
		<path class="st4" d="M459.6,464.3c5.1-19.8,18-34.6,33.6-37.4c2.5-0.4,11-1.8,19.6,2.8c16.5,8.8,16.8,30.7,16.8,31.8"/>
		<path class="st4" d="M544.9,381.6c0.4-1.9,0.8-4.9,0-8.3c-2-8.3-10-14.3-18.1-15.4c-1.8-0.3-8-1.1-14,2.8
			c-9.4,6.1-9.4,17.9-9.3,18.7"/>
		<path class="st4" d="M614.6,449.4"/>
		<path class="st4" d="M545.5,440c2.5-18.7,16.7-32.5,31.8-33.6c14.1-1,28.8,9.1,34.7,24.6"/>
		<path class="st4" d="M545.5,526c-1.1-27.1,19-44.7,33.6-43c4.6,0.5,9.4,3.1,13.4,7.2"/>
		<path class="st4" d="M549.3,255.1c-2,0.7-3.1,0.5-3.7,0c-3-2.4-1.4-16.1,4.6-29.4"/>
		<path class="st4" d="M545.5,255.1c-1.4-2-10.2-14.9-22.4-14.9c-14.4-0.1-30.4,17.3-29.9,43"/>
		<path class="st4" d="M459.6,331.7c0.3-24.6,10-44.1,24.3-48.6c6.4-2,12.1-0.3,13.1,0c12.8,3.9,21.7,19.4,22.4,39.2"/>
		<path class="st4" d="M357.8,388.7c-1.4-16.6-11.2-29.9-24.3-33.6c-12.1-3.4-22.4,2.6-24.3,3.7c-13.7,8-20.9,25.6-18.7,44.8"/>
		<path class="st4" d="M396.1,292.5"/>
		<path class="st4" d="M358.7,528c-3.7-13.9-12.5-25-22.4-26.3c-13.8-1.8-33,15-33.6,43"/>
		<path class="st4" d="M358.7,219.5c0.7-2.2,7.3-22.8,27.1-28.8c2.5-0.8,11.3-3.3,20.5,0c14.8,5.3,24.9,23.3,24.3,44.8"/>
		<path class="st4" d="M535.8,540.6c-6-6.5-14.3-10-22-9.1c-11.9,1.5-22.8,13.5-23.3,29"/>
		<path class="st4" d="M535.8,540.6"/>
		<path class="st4" d="M544.3,564.1"/>
		<path class="st4" d="M545.5,225.6c45.1,38.1,73.7,95,73.7,158.5c0,114.5-92.9,207.4-207.4,207.4s-207.4-92.9-207.4-207.4
			c0-37.6,10-72.9,27.6-103.4"/>
		<path class="st4" d="M231.9,280.8c35.8-62.2,103-104.1,179.9-104.1c51,0,97.6,18.4,133.8,48.9"/>
	</g>
	<path class="st3" d="M751.9,438.1c-5.5,1.4-11.1,2.8-16.6,4.1c0-0.9-0.1-2.2-0.3-3.8c-0.2-1.9-0.8-9.6-4.3-13.9
		c-4.2-5.1-11.5-7.7-21.9-7.7c-13.8,0-20.7,5-20.7,14.9c0,7.4,7.7,13.8,23.1,19.1c29.7,10.2,44.6,25.3,44.6,45.3
		c0,11.7-4.2,21.1-12.5,28.2c-8.3,7.1-19.4,10.6-33.3,10.6c-2.2,0-26.6,0.1-39.5-13.9c-3.5-3.9-5.9-8.4-5.9-8.4
		c-3.4-6.7-4.1-13-4.1-16.6c5.5,0,11.1,0,16.6,0c-0.3,1.9-0.6,4.9,0,8.3c1.4,7.3,6,11.7,7.6,13.3c8.1,7.6,18.3,7.4,21.4,7.4
		c14.1,0,21.1-5.5,21.1-16.6c0-8.2-8.4-15.4-25.3-21.7c-24.3-8.9-36.5-23.2-36.5-42.9c0-11.1,4.1-20.1,12.2-26.9
		c8.1-6.8,18.8-10.2,32-10.2c7.7,0,22.1,0.2,32.6,11.2C749.3,425.4,751.3,433.9,751.9,438.1z"/>
	<path class="st3" d="M862.6,409.1v12.4h-30.4v111.3h-38.1V421.5h-30.5v-12.4H862.6z"/>
	<path class="st3" d="M928.1,409.1l34.4,123.7h-36.1l-7.3-26.8h-37.2l-7.9,26.8h-14l36.6-123.7H928.1z M885.4,493.5h30.4l-14.6-54.8
		L885.4,493.5z"/>
	<path class="st3" d="M1059.1,409.1v12.4h-30.4v111.3h-38.1V421.5h-30.5v-12.4H1059.1z"/>
	<path class="st3" d="M1157.7,438.1c-5.5,1.4-11.1,2.8-16.6,4.1c0-0.9-0.1-2.2-0.3-3.8c-0.2-1.9-0.8-9.6-4.3-13.9
		c-4.2-5.1-11.5-7.7-21.9-7.7c-13.8,0-20.7,5-20.7,14.9c0,7.4,7.7,13.8,23.1,19.1c29.7,10.2,44.6,25.3,44.6,45.3
		c0,11.7-4.2,21.1-12.5,28.2c-8.3,7.1-19.4,10.6-33.3,10.6c-2.2,0-26.6,0.1-39.5-13.9c-3.5-3.9-5.9-8.4-5.9-8.4
		c-3.4-6.7-4.1-13-4.1-16.6c5.5,0,11.1,0,16.6,0c-0.3,1.9-0.6,4.9,0,8.3c1.4,7.3,6,11.7,7.6,13.3c8.1,7.6,18.3,7.4,21.4,7.4
		c14.1,0,21.1-5.5,21.1-16.6c0-8.2-8.4-15.4-25.3-21.7c-24.3-8.9-36.5-23.2-36.5-42.9c0-11.1,4.1-20.1,12.2-26.9
		c8.1-6.8,18.8-10.2,32-10.2c7.7,0,22.1,0.2,32.6,11.2C1155.1,425.4,1157.1,433.9,1157.7,438.1z"/>
</g>
<g>
	<path class="st4" d="M2202.8,222.1c0,171.7,0,264.5,0,314.8"/>
	<path class="st4" d="M2202.8,222.1"/>
	<path class="st4" d="M2202.8,218.4"/>
	<path class="st4" d="M2202.8,218.4"/>
	<path class="st4" d="M2116.8,598.8"/>
	<path class="st4" d="M2116.8,181.1c0,136.3,0,274.2,0,410.5"/>
	<path class="st4" d="M2116.8,181.1"/>
	<path class="st4" d="M2116.8,169.2"/>
	<path class="st4" d="M2016,598.8"/>
	<path class="st4" d="M2016,174.8c-0.3,157-2.3,295.6-0.2,412.9"/>
	<path class="st4" d="M1922.6,228.5"/>
	<path class="st4" d="M1922.6,527c0-93.5,0-186.5,0-280.1"/>
	<path class="st4" d="M1922.6,527"/>
	<path class="st4" d="M1909.5,441.9"/>
	<path class="st4" d="M1922.6,440c-1.7-4.7-14.2-37.4-41.1-43c-2.7-0.6-8.3-1.6-14.9,0c-0.9,0.2-1.8,0.5-2.7,0.8"/>
	<path class="st4" d="M1922.6,322.4c-2.3-23.8-17.5-41.7-34.4-47"/>
	<path class="st4" d="M1922.6,456.8c-0.6-28.7,9.6-50.1,23.3-53.2c5.7-1.3,11,1,13.1,1.9c13.1,5.7,21,21.8,20.5,41.1"/>
	<path class="st4" d="M1922.6,260.5c4-15.4,14.8-27.1,28-29.6c2.8-0.5,11.1-1.7,19.6,2.8c16.1,8.6,16.8,28.9,16.8,29.9"/>
	<path class="st4" d="M2015.1,325.3c-0.1-3.1,0.2-7.4,1.8-12.2c4.6-13,17.1-23.3,29.5-24.4c17.9-1.6,38.3,15.9,39.6,42"/>
	<path class="st4" d="M2116.8,369.1c0.7-20.3-8.4-36.1-20.5-39.2c-7-1.8-13.3,1.1-14.9,1.9c-11.3,5.4-18,19.3-16.8,35.5"/>
	<path class="st4" d="M2067.4,459.6c-0.1-3.2-0.6-33.2,16.8-43c1.6-0.9,5.3-2.9,10.3-2.8c13.9,0.4,21.9,17.6,22.4,18.7"/>
	<path class="st4" d="M2014.1,507.3c1-15.7,14.8-27.4,29.9-26.1c14.4,1.2,25.8,14,25.2,29"/>
	<path class="st4" d="M2115.6,509.4"/>
	<path class="st4" d="M2116.8,520.8"/>
	<path class="st4" d="M2116.8,464.3c5.1-19.8,18-34.6,33.6-37.4c2.5-0.4,11-1.8,19.6,2.8c16.5,8.8,16.8,30.7,16.8,31.8"/>
	<path class="st4" d="M2202.2,381.6c0.4-1.9,0.8-4.9,0-8.3c-2-8.3-10-14.3-18.1-15.4c-1.8-0.3-8-1.1-14,2.8
		c-9.4,6.1-9.4,17.9-9.3,18.7"/>
	<path class="st4" d="M2271.9,449.4"/>
	<path class="st4" d="M2202.8,440c2.5-18.7,16.7-32.5,31.8-33.6c14.1-1,28.8,9.1,34.7,24.6"/>
	<path class="st4" d="M2202.8,526c-1.1-27.1,19-44.7,33.6-43c4.6,0.5,9.4,3.1,13.4,7.2"/>
	<path class="st4" d="M2206.5,255.1c-2,0.7-3.1,0.5-3.7,0c-3-2.4-1.4-16.1,4.6-29.4"/>
	<path class="st4" d="M2202.8,255.1c-1.4-2-10.2-14.9-22.4-14.9c-14.4-0.1-30.4,17.3-29.9,43"/>
	<path class="st4" d="M2116.8,331.7c0.3-24.6,10-44.1,24.3-48.6c6.4-2,12.1-0.3,13.1,0c12.8,3.9,21.7,19.4,22.4,39.2"/>
	<path class="st4" d="M2015.1,388.7c-1.4-16.6-11.2-29.9-24.3-33.6c-12.1-3.4-22.4,2.6-24.3,3.7c-13.7,8-20.9,25.6-18.7,44.8"/>
	<path class="st4" d="M2053.3,292.5"/>
	<path class="st4" d="M2016,528c-3.7-13.9-12.5-25-22.4-26.3c-13.8-1.8-33,15-33.6,43"/>
	<path class="st4" d="M2016,219.5c0.7-2.2,7.3-22.8,27.1-28.8c2.5-0.8,11.3-3.3,20.5,0c14.8,5.3,24.9,23.3,24.3,44.8"/>
	<path class="st4" d="M2193.1,540.6c-6-6.5-14.3-10-22-9.1c-11.9,1.5-22.8,13.5-23.3,29"/>
	<path class="st4" d="M2193.1,540.6"/>
	<path class="st4" d="M2201.5,564.1"/>
	<path class="st4" d="M2202.8,225.6c45.1,38.1,73.7,95,73.7,158.5c0,114.5-92.9,207.4-207.4,207.4c-114.5,0-207.4-92.9-207.4-207.4
		c0-37.6,10-72.9,27.6-103.4"/>
	<path class="st4" d="M1889.1,280.8c35.8-62.2,103-104.1,179.9-104.1c51,0,97.6,18.4,133.8,48.9"/>
</g>
</svg>
